PathFileType	4	(X/Y/Z)	C:\Users\Basilio\Documents\Thesis Gigler\squatting_fais\c3dfiles\073\SLS_back_pre5\markers_experimental.trc
DataRate	CameraRate	NumFrames	NumMarkers	Units	OrigDataRate	OrigDataStartFrame	OrigNumFrames
200.000000	200.000000	4	61	mm	200.000000	1154	1539
Frame#	Time	FHD			LBHD			RBHD			C7			T10			CLAV			LSHO			LUUPA			LMUPA			LDUPA			LLEP			LMEP			LRAD			LUL			LRFIN			RSHO			RUPA1			RMUPA			RDUPA			RLEP			RMEP			RUL			RUFIN			LASI			RASI			USACR			LSACR			RSACR			LTHI1			LTHI2			LTHI3			LTHI4			LLFC			LTIB1			LTIB2			LTIB3			LTIB4			LLMAL			LMMAL			LHEE			LMT1			LMT2			LMT5			RTHI			RTHI2			RTHI3			RTHI4			RLFC			RMFC			RTIB1			RTIB2			RTIB3			RTIB4			RLMAL			RMMAL			RHEE			RMT1			RMT2			RMT5			LMFC			RRAD			
		X1	Y1	Z1	X2	Y2	Z2	X3	Y3	Z3	X4	Y4	Z4	X5	Y5	Z5	X6	Y6	Z6	X7	Y7	Z7	X8	Y8	Z8	X9	Y9	Z9	X10	Y10	Z10	X11	Y11	Z11	X12	Y12	Z12	X13	Y13	Z13	X14	Y14	Z14	X15	Y15	Z15	X16	Y16	Z16	X17	Y17	Z17	X18	Y18	Z18	X19	Y19	Z19	X20	Y20	Z20	X21	Y21	Z21	X22	Y22	Z22	X23	Y23	Z23	X24	Y24	Z24	X25	Y25	Z25	X26	Y26	Z26	X27	Y27	Z27	X28	Y28	Z28	X29	Y29	Z29	X30	Y30	Z30	X31	Y31	Z31	X32	Y32	Z32	X33	Y33	Z33	X34	Y34	Z34	X35	Y35	Z35	X36	Y36	Z36	X37	Y37	Z37	X38	Y38	Z38	X39	Y39	Z39	X40	Y40	Z40	X41	Y41	Z41	X42	Y42	Z42	X43	Y43	Z43	X44	Y44	Z44	X45	Y45	Z45	X46	Y46	Z46	X47	Y47	Z47	X48	Y48	Z48	X49	Y49	Z49	X50	Y50	Z50	X51	Y51	Z51	X52	Y52	Z52	X53	Y53	Z53	X54	Y54	Z54	X55	Y55	Z55	X56	Y56	Z56	X57	Y57	Z57	X58	Y58	Z58	X59	Y59	Z59	X60	Y60	Z60	X61	Y61	Z61	

1155	5.77	-83.58911895751955	1658.65283203125	-747.8470458984376	-215.7312469482422	1617.083129882813	-768.0401611328127	-233.0671997070313	1597.153076171875	-633.9265747070314	-256.3949890136719	1508.562133789063	-697.5936279296876	-376.4662475585938	1199.222778320313	-727.2033081054689	-139.1183319091797	1410.361450195313	-704.3424072265626	-171.5938415527344	1478.351928710938	-835.745544433594	-96.31617736816409	1407.7412109375	-939.167175292969	-54.28528594970705	1423.892822265625	-916.4735107421877	-35.50062561035157	1378.578735351563	-953.2886352539065	67.1100540161133	1348.8095703125	-960.8838500976565	62.02780151367189	1290.792236328125	-919.2673950195315	320.1997375488282	1374.713256835938	-834.8317871093752	328.2075805664063	1372.86083984375	-908.8716430664065	402.1467285156251	1384.889038085938	-823.5219726562502	-150.7327117919922	1451.696655273438	-562.0462646484376	-70.60720062255861	1339.382202148438	-463.6213378906251	-29.08078384399415	1357.810791015625	-479.1570739746095	-10.52726650238037	1305.150390625	-457.162811279297	79.53513336181642	1280.382202148438	-456.8441772460939	72.17654418945314	1227.730102539063	-521.5296630859376	338.6138000488282	1319.1181640625	-510.0428771972657	416.1647949218751	1335.284057617188	-591.3458862304689	-252.6504516601563	1004.168395996094	-855.3584594726565	-250.5701904296876	1004.642150878906	-608.9872436523439	-421.0488586425782	1095.992797851563	-729.2793579101564	-436.4934387207032	1069.190185546875	-757.4329223632814	-441.6919250488282	1068.576049804688	-700.9127807617189	-263.7833557128907	685.9266967773439	-911.9331665039065	-218.9223785400391	615.1615600585939	-895.7952270507815	-178.6808166503907	623.9138183593751	-868.689880371094	-243.3127441406251	560.7753906250001	-886.539978027344	-250.9016418457032	515.1031494140626	-886.3936157226565	-401.8915100097657	406.733612060547	-832.0661621093752	-454.9818725585939	447.8513488769532	-887.2141723632815	-452.0386352539064	410.5032348632814	-865.3173828125002	-526.7052612304689	391.469451904297	-830.4002685546877	-655.7143554687501	419.7708129882814	-859.6047973632815	-628.3598022460939	420.0884094238282	-774.119567871094	-689.8753051757814	479.3284606933595	-820.820251464844	-677.3482055664064	261.5399475097657	-761.5005493164064	-679.7527465820314	255.3920593261719	-800.5209960937502	-709.8586425781251	283.1638488769532	-853.1241455078127	-329.3926696777344	776.0908813476565	-549.4940185546876	-287.1521606445313	725.1906127929689	-552.2202148437501	-254.0712890625001	730.0147705078126	-553.4887695312501	-302.0206909179688	647.9219970703126	-579.8582153320314	-269.2746276855469	503.8728942871095	-604.1696777343751	-260.3254699707032	505.0572204589845	-733.2203369140626	-248.6860961914063	348.0648498535157	-709.3059082031251	-284.5641174316407	264.3185729980469	-650.8470458984376	-260.8605651855469	263.4699401855469	-693.1853637695314	-287.1510009765626	226.3322296142579	-730.1062622070314	-357.7837829589844	101.4681777954102	-689.2799682617189	-350.0852050781251	130.3084411621094	-773.6626586914065	-430.1966552734376	84.22747802734376	-745.2188110351564	-206.1331481933594	54.52981567382814	-761.2661743164064	-205.8191223144532	50.97206878662111	-720.2869873046876	-248.6657104492188	34.75103378295899	-670.9630737304689	-255.2336730957032	512.4971313476564	-747.5070800781251	nan	nan	nan	
1156	5.775	-84.13779449462892	1659.968383789063	-747.7633666992189	-216.7046661376954	1618.363159179688	-767.9601440429689	-233.8470306396485	1598.467529296875	-633.9480590820314	-257.2777099609376	1509.498901367188	-697.4056396484376	-376.3149719238282	1199.6689453125	-727.0296020507814	-139.7296752929688	1411.673217773438	-704.1862182617189	-172.5563049316407	1479.18896484375	-835.8117675781252	-97.1247253417969	1408.79736328125	-939.072448730469	-55.1393165588379	1424.770751953125	-916.7109375000002	-36.12521362304688	1379.688110351563	-953.2793579101565	66.63450622558595	1349.923461914063	-960.7901000976565	61.27682495117189	1291.869506835938	-919.3035888671877	319.4635925292969	1376.136352539063	-834.855163574219	327.5575561523438	1374.271484375	-908.8716430664065	401.2426147460939	1386.5048828125	-823.2861938476565	-151.489730834961	1452.72802734375	-561.7208251953126	-71.30979156494142	1340.311889648438	-463.4252319335939	-29.72357559204102	1358.882202148438	-479.0540466308595	-11.11168193817139	1306.189086914063	-457.0693359375001	78.87985992431642	1281.374145507813	-456.6289672851564	71.50938415527345	1228.859375	-521.5371704101564	337.9586486816407	1320.182373046875	-509.9343872070314	415.5559082031251	1336.349487304688	-591.2251586914064	-251.7998809814454	1005.132629394531	-855.2431640625002	-249.8010559082032	1005.263244628906	-608.8151855468751	-420.5383605957032	1096.531005859375	-729.2778930664064	-435.5969543457032	1069.690185546875	-757.3657226562501	-441.2301330566407	1068.98779296875	-700.9086914062501	-262.7581481933594	687.0999755859376	-912.4151611328127	-217.7386779785157	616.0261230468751	-895.928894042969	-177.5377044677735	624.8428344726564	-868.7217407226565	-242.0583496093751	561.5794067382814	-886.7131347656252	-249.8109130859376	516.0527343750001	-886.6196899414065	-399.9798278808595	407.1877441406251	-832.710388183594	-453.7514648437501	448.5658264160157	-887.4033203125002	-450.1155700683595	410.9872131347657	-865.0696411132815	-525.4580688476564	392.1422119140626	-830.8272094726565	-654.4940185546876	420.3903198242189	-859.789733886719	-627.0441284179689	420.6634521484376	-774.324645996094	-688.6873168945314	479.8735351562501	-820.9707031250002	-675.7896118164064	262.0071716308594	-762.2489013671876	-677.8455810546876	256.0230407714844	-800.9793090820315	-708.5491333007814	283.6993713378907	-853.467468261719	-329.3364257812501	776.6715087890627	-549.5903320312501	-287.3069763183594	725.7270507812501	-552.1822509765626	-254.2257995605469	730.3212890625001	-553.4160156250001	-302.3893432617188	648.4006958007814	-579.8712158203126	-270.1299133300782	504.0796813964845	-604.1880493164064	-260.9685668945313	505.2458801269532	-733.3488769531251	-249.2079315185547	348.2809448242188	-709.2653198242189	-284.9275207519532	264.5193786621094	-650.6448974609376	-261.0361633300782	263.6690673828126	-693.0004882812501	-287.4307861328126	226.4861602783204	-730.0387573242189	-357.8213195800782	101.5352554321289	-689.2557373046876	-350.0771179199219	130.3049621582032	-773.6621704101565	-430.2145080566407	84.24066162109376	-745.2405395507814	-206.1518859863282	54.53465652465822	-761.2351074218751	-205.8244323730469	50.97453689575197	-720.2715454101564	-248.6604461669922	34.72647094726563	-670.9837646484376	-254.1076660156251	513.3442382812501	-747.8828735351564	nan	nan	nan	
1157	5.78	-84.85620880126955	1660.986206054688	-747.4874267578126	-217.4066009521485	1619.520629882813	-767.9404907226564	-234.6185302734376	1599.872924804688	-633.8965454101564	-258.2257995605469	1510.443115234375	-697.3025512695314	-376.0733337402344	1200.104614257813	-726.8118286132814	-140.3974304199219	1413.055419921875	-704.0354003906251	-173.3177642822266	1480.272338867188	-835.802429199219	-97.87371826171878	1409.683959960938	-938.9516601562502	-55.70470428466798	1425.859985351563	-916.583435058594	-37.01435089111329	1380.668823242188	-953.2237548828127	65.74019622802736	1351.013793945313	-960.8391113281252	60.68321228027345	1293.0478515625	-919.0608520507815	318.8594360351563	1377.726806640625	-834.800720214844	326.8481750488282	1375.71337890625	-908.8530883789065	400.4641723632814	1387.99755859375	-823.330017089844	-152.1888122558594	1453.88916015625	-561.4568481445314	-71.91098022460939	1341.352172851563	-463.1403808593751	-30.38062858581544	1359.8466796875	-478.8023071289064	-11.7296199798584	1307.223876953125	-456.8320617675782	78.21340179443361	1282.361694335938	-456.4240722656251	70.80635833740236	1229.8603515625	-521.4000854492189	337.2987976074219	1321.18212890625	-509.7657165527345	414.8259277343751	1337.479614257813	-590.9185791015626	-251.0111083984376	1006.08349609375	-855.0671386718752	-249.0690002441407	1005.925720214844	-608.7220458984376	-420.0149841308595	1097.000732421875	-729.2005004882814	-434.8627929687501	1070.133056640625	-757.3460693359376	-440.5490112304689	1069.349487304688	-700.8424072265626	-261.7393798828126	687.5234985351564	-912.3386840820315	-216.6752319335938	616.8255615234376	-895.8945922851565	-176.3005065917969	625.7396850585939	-868.6333007812502	-240.8659362792969	562.4302978515626	-886.8167724609377	-248.6937713623047	516.8966674804689	-886.7203369140627	-398.5740356445314	407.9546813964845	-833.2229003906252	-452.6540832519532	449.3493041992189	-887.6101074218752	-448.8050842285157	411.5862731933595	-865.2276611328127	-524.2797851562501	392.7938842773439	-830.9517822265627	-653.2280273437501	420.9544677734376	-859.9056396484377	-626.0119018554689	421.207733154297	-774.641296386719	-687.5070800781251	480.4158630371095	-821.132507324219	-674.2369384765626	262.5885009765626	-762.6850585937501	-676.4933471679689	256.5509338378907	-801.1790771484377	-707.2581176757814	284.3412475585938	-853.8696289062502	-329.3121643066407	777.2364501953127	-549.6467895507814	-287.4540405273438	726.1721801757814	-552.2282104492189	-254.3133544921876	730.6462402343751	-553.3681640625001	-302.7719116210938	648.9124145507814	-579.9177856445314	-271.0542602539063	504.3219299316407	-604.2572021484376	-261.6702575683594	505.4532775878907	-733.3931274414064	-249.6310119628907	348.4797363281251	-709.1330566406251	-285.3275451660157	264.7052612304688	-650.6812133789064	-261.4443664550782	263.8733215332032	-693.0065917968751	-287.5722045898438	226.6143646240235	-730.0150146484376	-357.8398437500001	101.5757522583008	-689.2741699218751	-350.1772155761719	130.3399963378907	-773.6518554687502	-430.1977539062501	84.28359222412111	-745.2055664062501	-206.1445922851563	54.49117660522462	-761.2610473632814	-205.7851715087891	50.84252166748048	-720.6470947265626	-248.6632537841797	34.79252624511719	-670.8547363281251	-252.953842163086	514.2265625000001	-748.2823486328126	nan	nan	nan	
1158	5.785	-83.16836547851564	1662.554321289063	-747.6479492187501	-218.0900573730469	1620.72119140625	-767.8402099609376	-235.5007476806641	1601.016357421875	-633.7606811523439	-259.1823120117188	1511.380493164063	-697.2230834960939	-375.9273376464844	1200.534057617188	-726.6589965820314	-140.9679870605469	1414.415161132813	-703.7916259765626	-174.0907897949219	1481.2392578125	-835.9058837890627	-98.69750976562503	1410.644287109375	-938.9378662109377	-56.44858551025392	1426.908203125	-916.6055908203127	-37.69831085205079	1381.678466796875	-953.209899902344	65.19519042968751	1352.084228515625	-960.8958740234377	60.1862258911133	1294.326904296875	-919.0822753906252	318.1762695312501	1379.049560546875	-834.7698364257815	326.2838439941407	1377.211059570313	-908.7741699218752	400.1041259765626	1389.580688476563	-823.560729980469	-152.9887084960938	1455.014770507813	-561.1176147460939	-72.58011627197267	1342.327514648438	-462.9886779785157	-31.04454040527344	1360.827758789063	-478.627166748047	-12.45123767852784	1308.12060546875	-456.6428222656251	77.5392532348633	1283.269165039063	-456.3141479492189	70.13752746582033	1230.856811523438	-521.3126220703126	336.5878906250001	1322.15185546875	-509.655975341797	414.1712036132814	1338.4375	-590.7977905273439	-250.2030639648438	1006.976928710938	-854.900573730469	-248.2962799072266	1006.623779296875	-608.7069091796876	-419.4684448242189	1097.454833984375	-729.1396484375001	-434.3948974609376	1070.670288085938	-757.3019409179689	-439.9132080078126	1069.735961914063	-700.7236328125001	-260.5971984863282	688.4605102539064	-912.7065429687502	-215.5285339355469	617.7131347656251	-896.0112304687502	-175.3147888183594	626.5292968750001	-868.5379028320315	-239.8550262451172	563.1870727539064	-886.8113403320315	-247.4197692871094	517.7529296875001	-886.8146972656252	-397.4351806640626	408.6637268066407	-833.280456542969	-451.420135498047	450.0123291015626	-887.8093872070315	-447.530487060547	412.2080078125001	-865.399108886719	-523.0343627929689	393.4575805664064	-831.215759277344	-651.9884033203126	421.5667419433595	-860.1594848632815	-624.7518920898439	421.7429199218751	-774.8419189453127	-686.3474121093751	480.9421997070314	-821.3272705078127	-673.4585571289064	263.0811767578126	-762.4969482421876	-675.5653686523439	256.9375305175782	-801.3823852539065	-705.9793701171876	284.9034423828126	-853.9783935546877	-329.2274169921876	777.781188964844	-549.6282958984376	-287.6455078125001	726.5636596679689	-552.3154296875001	-254.4637756347657	731.0009765625001	-553.3779907226564	-303.1940612792969	649.3970947265626	-580.0017700195314	-271.8957214355469	504.5833740234376	-604.3532104492189	-262.2812194824219	505.6323242187501	-733.4997558593751	-250.081527709961	348.7352905273438	-709.0953369140626	-285.7119445800782	264.9122619628907	-650.6279296875001	-261.8034667968751	264.0761108398438	-692.9841308593751	-287.7166137695313	226.7918853759766	-729.9683837890626	-357.8530578613282	101.6317977905274	-689.3156127929689	-350.1743469238282	130.3724670410157	-773.610290527344	-430.2060546875001	84.2916717529297	-745.2221069335939	-206.1294708251954	54.48598480224611	-761.2369384765626	-205.7641601562501	50.9413299560547	-720.4207763671876	-248.6626892089844	34.73467254638673	-670.9556884765626	-252.2472534179688	514.6216430664064	-748.3203735351564	nan	nan	nan	
